# xmcd
#
# Track frame offsets: 
#        150
#        20044
#        39130
#        62897
#        81705
#        100199
#        118881
#        135731
#        153410
#        173834
#        192293
#        208565
#        228961
#        246320
#        266354
#        284716
#
# Disc length: 4044 seconds
#
# Revision: 0
# Processed by: cddbd v1.5.2PL0 Copyright (c) Steve Scherf et al.
# Submitted via: ExactAudioCopyFreeDBPlugin 1.0
#
DISCID=ea0fca10
DTITLE=มนต์แคน แก่นคูณ - มนต์ลำ...มนต์แคน แก่นคูณ
DYEAR=1900
DGENRE=
TTITLE0=รอปาฏิหาริย์
TTITLE1=รอเธอที่นวนคร
TTITLE2=อดีตรักมักสาวครู
TTITLE3=กุหลาบแดง
TTITLE4=ดอกจานประหารใจ
TTITLE5=แฟนเขาผู้สาวอ้าย
TTITLE6=แฟนอ้ายไปดี
TTITLE7=เตรียมใจอภัยน้อง
TTITLE8=อ้ายจนทนบ่ได้
TTITLE9=มีเจ้าบ่ย่านจน
TTITLE10=เซิ้งคอยสาว
TTITLE11=ฝากเสียงลำถามเสียงใจ
TTITLE12=ความคิดฮอดสั่งมา
TTITLE13=บอกลาโทรมาก็ได้
TTITLE14=รอยเล็บที่ระลึก
TTITLE15=แพ้รบสนามรัก
EXTD=
EXTT0=
EXTT1=
EXTT2=
EXTT3=
EXTT4=
EXTT5=
EXTT6=
EXTT7=
EXTT8=
EXTT9=
EXTT10=
EXTT11=
EXTT12=
EXTT13=
EXTT14=
EXTT15=
PLAYORDER=
